<?xml version="1.0" encoding="utf-8"?>
<!-- Generator: Adobe Illustrator 24.0.3, SVG Export Plug-In . SVG Version: 6.00 Build 0)  -->
<svg version="1.1" id="Layer_1" xmlns="http://www.w3.org/2000/svg" xmlns:xlink="http://www.w3.org/1999/xlink" x="0px" y="0px"
	 viewBox="0 0 256.6 21.6" enable-background="new 0 0 256.6 21.6" xml:space="preserve">
<g>
	<path fill="#0C2B57" d="M218.6,1.3l-4,11.9L211,1.3h-7v0.5c1,0.1,1.6,0.6,1.6,2.4v11.9c0,1.9-0.7,3.5-2.4,3.7v0.5h5.9v-0.5
		c-1.7-0.2-2.4-1.5-2.4-3.5V3.2h0.1l5.7,17.2h0.7L219,2.8h0C219,4.7,219,8,219,9.5v7.6c0,2.2-1.2,2.6-2,2.7v0.5h8.3v-0.5
		c-0.7-0.1-1.8-0.6-1.8-2.7V4.3c0-2.1,1.2-2.5,1.8-2.5V1.3H218.6z M200.4,4.3c0-2.2,1.2-2.5,2.1-2.5V1.3h-8.6v0.5
		c0.8,0.1,2,0.4,2,2.5v12.8c0,2.2-1.2,2.6-2,2.7v0.5h8.2v-0.5c-0.6-0.1-1.8-0.6-1.8-2.7V4.3z M233.1,19.7v-8.8h1.5
		c2.3,0,3.1,0.8,3.7,2.3h0.5V7.8h-0.5c-0.6,1.6-1.5,2.4-3.7,2.4h-1.5V2h1.8c2.1,0,4.8,0.4,5.8,3.6h0.5V1.3h-14.3v0.5
		c0.6,0.1,1.6,0.3,1.6,2.4v13c0,2.1-1,2.5-1.6,2.6v0.5h14.5v-4.4h-0.5c-1.1,2.6-2.1,3.7-5.5,3.7H233.1z M176.5,1.3v4.3h0.5
		c1.2-2.8,3.1-3.6,4.7-3.6h0.7v15.2c0,2.2-1.3,2.6-2.1,2.7v0.5h8.7v-0.5c-0.9-0.1-2-0.5-2-2.7V2h0.7c1.8,0,3.5,0.8,4.7,3.6h0.5V1.3
		H176.5z M248.4,19.9c-2.7,0-3.9-2.1-4.7-4h-0.5V20c1.2,0.3,3,0.6,5.1,0.6c3.8,0,7.4-1.7,7.4-5.8c0-2.7-1.4-4.6-5-6
		c-2.5-0.9-3.9-1.9-3.9-4c0-2,1.6-3.1,3.3-3.1c2.4,0,3.6,1.8,4.4,3.9h0.5V1.5c-1.1-0.2-2.7-0.5-4.5-0.5c-4.6,0-7.2,2.2-7.2,5.5
		c0,3.3,2.3,4.6,4.7,5.7c2.6,1.1,4,2.1,4,4.4C251.9,18.8,250.4,19.9,248.4,19.9 M35.9,4.3c0-2.2,1.2-2.5,2-2.5V1.3h-8.4v0.5
		c0.8,0.1,2,0.4,2,2.5v5.7h-6.4V4.3c0-2.2,1.2-2.5,2-2.5V1.3h-8.4v0.5c0.8,0.1,2,0.4,2,2.5v12.8c0,2.2-1.2,2.6-2,2.7v0.5h8.4v-0.5
		c-0.8-0.1-2-0.5-2-2.7v-6.2h6.4v6.2c0,2.2-1.2,2.6-2,2.7v0.5h8.4v-0.5c-0.8-0.1-2-0.5-2-2.7V4.3z M45.5,19.7v-8.8h1.6
		c2.3,0,3.1,0.8,3.7,2.3h0.5V7.8h-0.5c-0.6,1.6-1.5,2.4-3.7,2.4h-1.6V2h1.8c2.1,0,4.7,0.4,5.8,3.6h0.5V1.3H39.4v0.5
		C40,1.9,41,2.1,41,4.2v13c0,2.1-1.1,2.5-1.7,2.6v0.5h14.7v-4.4h-0.5c-1.3,3.2-2.8,3.7-5.5,3.7H45.5z M1,1.3v4.3h0.5
		C2.7,2.8,4.4,2,6.2,2h0.7v15.2c0,2.2-1.4,2.6-2.1,2.7v0.5h8.6v-0.5c-0.8-0.1-2-0.5-2-2.7V2H12c1.8,0,3.5,0.8,4.7,3.6h0.5V1.3H1z
		 M67.6,19.9c-2.7,0-3.9-2.1-4.7-4h-0.5V20c1.2,0.3,3,0.6,5,0.6c3.8,0,7.4-1.7,7.4-5.8c0-2.7-1.4-4.6-5-6c-2.5-0.9-3.9-1.9-3.9-4
		c0-2,1.6-3.1,3.3-3.1c2.4,0,3.6,1.8,4.4,3.9h0.5V1.4C73,1.2,71.4,1,69.5,1c-4.6,0-7.2,2.2-7.2,5.5c0,3.3,2.3,4.6,4.7,5.7
		c2.6,1.1,4,2.1,4,4.4C71.1,18.8,69.6,19.9,67.6,19.9 M162.9,19.9c-2.7,0-3.9-2.1-4.6-4h-0.5V20c1.2,0.3,3,0.6,5.1,0.6
		c3.8,0,7.4-1.7,7.4-5.8c0-2.7-1.4-4.6-5-6c-2.5-0.9-3.9-1.9-3.9-4c0-2,1.6-3.1,3.3-3.1c2.4,0,3.7,1.8,4.4,3.9h0.5V1.5
		c-1.2-0.2-2.7-0.5-4.6-0.5c-4.6,0-7.2,2.2-7.2,5.5c0,3.3,2.3,4.6,4.8,5.7c2.6,1.1,4,2.1,4,4.4C166.5,18.8,165,19.9,162.9,19.9
		 M75.6,1.3v4.3h0.5C77.3,2.8,79,2,80.8,2h0.7v15.2c0,2.2-1.3,2.6-2.1,2.7v0.5H88v-0.5c-0.8-0.1-2-0.5-2-2.7V2h0.7
		c1.8,0,3.5,0.8,4.7,3.6h0.5V1.3H75.6z M140.4,1.3v4.3h0.5c1.2-2.8,3-3.6,4.6-3.6h0.7v15.2c0,2.2-1.3,2.6-2.1,2.7v0.5h8.6v-0.5
		c-0.8-0.1-2-0.5-2-2.7V2h0.7c1.8,0,3.5,0.8,4.7,3.6h0.5V1.3H140.4z M137.3,4.4c0-2.2,1.2-2.5,2-2.6V1.3h-8.4v0.5
		c0.8,0.1,2,0.4,2,2.6v12.7c0,2.2-1.2,2.6-2,2.7v0.5h8.4v-0.5c-0.8-0.1-2-0.5-2-2.7V4.4z M128.2,17.7l-4.9-16.4h-6.1v0.5
		c0.8,0.1,1.2,0.7,1.2,1.1c0,0.3-0.1,0.6-0.2,1.1l-4,11.2c-1.3,3.6-2.2,4.5-3.1,4.7v0.5h5.3v-0.5c-1-0.1-1.7-1-1.7-2.1
		c0-0.8,0.2-1.6,0.6-2.7l0.4-1.2h6.7c0.4,1.7,1.1,3.5,1.1,4.6c0,0.7-0.4,1.3-1.4,1.4v0.5h8.2v-0.5C129.3,19.8,128.7,19.2,128.2,17.7
		 M115.8,13.1l3.3-9.6h0.1l2.7,9.6H115.8z M110.5,20.3v-0.5c-0.7-0.1-0.9-0.5-1.7-3.3c-1.1-3.6-2.3-5.8-5.7-6l0.1-0.2
		c3.1-0.1,5.5-1.6,5.5-4.6c0-3.7-3.9-4.4-8.1-4.4H93v0.5c0.7,0.1,2,0.4,2,2.5v12.8c0,2.2-1.2,2.6-2,2.7v0.5h8.1v-0.5
		c-0.8-0.1-1.6-0.6-1.6-2.9V11h0.4c2.1,0,3.4,2.4,4.4,6.2c0.6,2.2,0.7,2.7,0.7,2.9v0.2H110.5z M100.2,10.4c-0.2,0-0.4,0-0.7,0V2
		c0.4-0.1,0.8-0.1,1-0.1c2.5,0,3.9,1,3.9,3.8C104.4,8.9,102.8,10.4,100.2,10.4"/>
</g>
</svg>
